# xmcd CD database file
#
# Track frame offsets:
#	150
#	16855
#	31712
#	48155
#	66535
#	93517
#	117440
#	144065
#	158132
#	180985
#	200772
#	221602
#	240247
#	263742
#	288432
#	297812
#	308155
#
# Disc length: 4337 seconds
#
# Revision: 1
# Processed by: cddbd v1.5.2PL0 Copyright (c) Steve Scherf et al.
# Submitted via: CDex 1.70beta2
#
DISCID=e810ef11
DTITLE=Luis Villegas and others - Cafe Sol
DYEAR=2001
DGENRE=Salsa
TTITLE0=Luis Villegas - Baby Elephants
TTITLE1=Luis Villegas - Banana Bay
TTITLE2=Luis Villegas - Chiquilla
TTITLE3=Grupomania 2050 - Caracolito
TTITLE4=Luis Villegas - Mujer Y Mujer
TTITLE5=Luis Villegas - Cafe Ole
TTITLE6=Luis Villegas - Noches Guitanas
TTITLE7=Luis Villegas - Don Quixote
TTITLE8=Luis Villegas - Viva Mexico
TTITLE9=Luis Villegas - New Moon
TTITLE10=Ketama - Asi Me Siento
TTITLE11=Jose Feliciano - No Me Hables De Amor
TTITLE12=Santana - Oye Como Va (Live)
TTITLE13=Herbie Hancock - Cantaloupe Island
TTITLE14=Herbie Mann - The Peanut Vendor
TTITLE15=Astrud Gilberto - Agua De Beber
TTITLE16=Nueva Era - Lo Que Yo siento Por Ti
EXTD=YEAR: 2001
EXTT0=
EXTT1=
EXTT2=
EXTT3=
EXTT4=
EXTT5=
EXTT6=
EXTT7=
EXTT8=
EXTT9=
EXTT10=
EXTT11=
EXTT12=
EXTT13=
EXTT14=
EXTT15=
EXTT16=
PLAYORDER=
